#!OML:ASF H:\Terrain\Patient Classification 1\Terrain2\Thursday\justin.ASF
:FULLY-SPECIFIED
:DEGREES
1631
root 0.854984 23.9689 -0.45546 -252.309 -87.8736 -105.059
lowerback 9.44816 0.899374 -4.24339
upperback 2.65617 0.752765 1.25495
thorax -2.60648 0.352325 3.60878
lowerneck -13.0447 0.124029 -7.83522
upperneck 39.2277 -1.32902 5.19975
head 16.2892 -1.59724 3.30669
rclavicle -8.94531e-016 1.98785e-015
rhumerus -32.8934 -1.34651 -83.846
rradius 41.9264
rwrist -14.0148
rhand -21.4103 13.2574
rfingers 7.12502
rthumb 4.97817 -16.6641
lclavicle -8.94531e-016 1.98785e-015
lhumerus -30.0654 -4.93696 84.4984
lradius 46.6366
lwrist 10.2971
lhand -17.9145 20.8663
lfingers 7.12502
lthumb 8.3529 50.6811
rfemur -22.0301 -7.36921 21.7108
rtibia 55.034
rfoot -18.3058 4.70963
rtoes 2.18613
lfemur -14.6497 3.08757 -18.6589
ltibia 23.9647
lfoot -6.45937 -14.6176
ltoes 22.7455
1632
root 0.807724 23.9412 -0.462642 -252.398 -88.0677 -105.018
lowerback 9.28872 0.901767 -4.58324
upperback 2.66595 0.73462 1.32794
thorax -2.51071 0.342159 3.88053
lowerneck -13.1578 0.108534 -7.83137
upperneck 39.4365 -1.30938 5.05081
head 16.4268 -1.61869 3.25017
rclavicle 1.83876e-015 1.19271e-015
rhumerus -32.6968 -1.68528 -83.5323
rradius 41.1856
rwrist -13.727
rhand -21.2819 13.5776
rfingers 7.12502
rthumb 5.10219 -16.341
lclavicle 1.83876e-015 1.19271e-015
lhumerus -29.9193 -4.5248 84.5248
lradius 46.4037
lwrist 10.1605
lhand -17.8479 20.8041
lfingers 7.12502
lthumb 8.41711 50.6164
rfemur -21.9081 -7.0072 21.8212
rtibia 53.2594
rfoot -19.3307 4.44019
rtoes -3.16895
lfemur -14.7558 3.04267 -18.8482
ltibia 24.5884
lfoot -7.07247 -14.8183
ltoes 21.843
1633
root 0.762549 23.9148 -0.47029 -253.518 -88.3115 -103.854
lowerback 9.14392 0.922061 -4.80509
upperback 2.57313 0.74993 1.29183
thorax -2.53046 0.354705 3.96713
lowerneck -13.1148 0.108678 -7.63278
upperneck 39.601 -1.30875 4.82321
head 16.5018 -1.62981 3.11615
rclavicle -1.73937e-016 -1.86858e-014
rhumerus -32.624 -2.1757 -83.2935
rradius 40.4175
rwrist -13.3414
rhand -21.0473 13.5038
rfingers 7.12502
rthumb 5.32866 -16.4092
lclavicle -1.73937e-016 -1.86858e-014
lhumerus -29.8059 -4.24847 84.5645
lradius 46.0346
lwrist 10.2373
lhand -18.2594 21.0366
lfingers 7.12502
lthumb 8.01995 50.8644
rfemur -21.8242 -6.54933 21.8208
rtibia 51.445
rfoot -20.0721 4.69472
rtoes -5.94117
lfemur -14.9683 2.92064 -19.0913
ltibia 25.2072
lfoot -7.89554 -14.9005
ltoes 18.9061
1634
root 0.715888 23.8967 -0.475477 -256.831 -88.2104 -100.649
lowerback 9.17317 0.900395 -4.50389
upperback 2.49616 0.748114 1.2782
thorax -2.62322 0.357682 3.78201
lowerneck -13.0185 0.136201 -7.46413
upperneck 39.7435 -1.28951 4.66364
head 16.5502 -1.6293 3.01942
rclavicle 3.10601e-015 -6.95746e-015
rhumerus -32.5757 -2.71395 -83.1619
rradius 39.5817
rwrist -12.935
rhand -20.816 13.1307
rfingers 7.12502
rthumb 5.55202 -16.7766
lclavicle 3.10601e-015 -6.95746e-015
lhumerus -29.8729 -3.89841 84.4993
lradius 45.7341
lwrist 10.152
lhand -18.3927 21.3601
lfingers 7.12502
lthumb 7.89134 51.1928
rfemur -21.4744 -5.87329 22.108
rtibia 49.6298
rfoot -20.4797 4.80491
rtoes -5.97201
lfemur -14.952 2.67916 -18.9215
ltibia 25.7846
lfoot -8.87163 -14.7697
ltoes 17.2319
1635
root 0.665004 23.873 -0.47624 -257.111 -88.1706 -100.602
lowerback 9.20574 0.867523 -4.31187
upperback 2.51017 0.721134 1.31034
thorax -2.62247 0.342924 3.70981
lowerneck -12.9424 0.167647 -7.4959
upperneck 39.819 -1.2118 4.55956
head 16.5646 -1.62313 2.99223
rclavicle 2.38542e-015 -5.36719e-015
rhumerus -32.4985 -3.04455 -82.9618
rradius 38.7765
rwrist -12.5114
rhand -20.8908 13.0386
rfingers 7.12502
rthumb 5.47981 -16.8706
lclavicle 2.38542e-015 -5.36719e-015
lhumerus -30.0699 -3.28322 84.4557
lradius 45.5539
lwrist 9.722
lhand -17.9662 21.4886
lfingers 7.12502
lthumb 8.30298 51.3055
rfemur -20.9356 -5.41029 22.2508
rtibia 47.8428
rfoot -20.6203 5.272
rtoes -2.79993
lfemur -14.7824 2.50649 -18.8564
ltibia 26.4159
lfoot -9.65894 -14.6498
ltoes 19.609
1636
root 0.61291 23.851 -0.478861 -257.068 -88.3132 -100.66
lowerback 8.94526 0.885089 -4.2053
upperback 2.53572 0.763291 1.19315
thorax -2.45322 0.359707 3.52367
lowerneck -12.9646 0.129815 -7.44428
upperneck 39.8861 -1.29409 4.56765
head 16.614 -1.65127 2.97461
rclavicle 1.24737e-014 3.77691e-015
rhumerus -32.3297 -3.58607 -82.9248
rradius 38.0225
rwrist -12.2566
rhand -21.3339 12.94
rfingers 7.12502
rthumb 5.05196 -16.9798
lclavicle 1.24737e-014 3.77691e-015
lhumerus -30.0682 -3.02418 84.3517
lradius 45.2957
lwrist 9.50136
lhand -18.3314 21.5533
lfingers 7.12502
lthumb 7.95045 51.3838
rfemur -20.6315 -5.13583 22.2138
rtibia 46.0865
rfoot -20.5693 5.76483
rtoes 0.209844
lfemur -14.908 2.58722 -19.001
ltibia 27.1045
lfoot -10.5817 -14.7473
ltoes 17.8389
1637
root 0.56397 23.8281 -0.485005 -260.175 -88.0922 -97.5655
lowerback 8.73712 0.897388 -3.73858
upperback 2.55741 0.829266 1.16887
thorax -2.31571 0.388467 3.2285
lowerneck -12.9791 0.0914045 -7.43426
upperneck 39.9769 -1.41862 4.69691
head 16.6789 -1.68843 3.01253
rclavicle 3.2551e-015 -7.55382e-015
rhumerus -32.1044 -4.24873 -82.9223
rradius 37.2815
rwrist -12.2414
rhand -21.2978 12.7115
rfingers 7.12502
rthumb 5.08681 -17.2075
lclavicle 3.2551e-015 -7.55382e-015
lhumerus -29.9041 -2.9926 84.316
lradius 44.8468
lwrist 9.55704
lhand -19.3741 21.8401
lfingers 7.12502
lthumb 6.94399 51.7062
rfemur -20.3394 -4.64028 22.6727
rtibia 44.421
rfoot -20.6394 5.53678
rtoes -0.250855
lfemur -15.0359 2.53996 -18.687
ltibia 27.7419
lfoot -11.7855 -14.5744
ltoes 11.6606
1638
root 0.515752 23.8034 -0.491519 -263.619 -87.7637 -94.3388
lowerback 8.77836 0.88893 -3.25469
upperback 2.59266 0.860034 1.27396
thorax -2.29995 0.401156 3.06084
lowerneck -12.9016 0.121542 -7.60158
upperneck 40.0939 -1.4282 4.89581
head 16.726 -1.70011 3.13353
rclavicle 8.44835e-015 6.36111e-015
rhumerus -31.9941 -4.96401 -82.679
rradius 36.5803
rwrist -12.0367
rhand -21.003 12.7417
rfingers 7.12502
rthumb 5.37145 -17.1702
lclavicle 8.44835e-015 6.36111e-015
lhumerus -29.8217 -2.73771 84.3771
lradius 44.3566
lwrist 9.43277
lhand -19.4217 21.858
lfingers 7.12502
lthumb 6.89804 51.7256
rfemur -19.8587 -4.17991 23.2599
rtibia 42.9208
rfoot -20.7789 5.23883
rtoes -1.70402
lfemur -14.898 2.76636 -18.2451
ltibia 28.2729
lfoot -12.6839 -14.7455
ltoes 8.98367
1639
root 0.466507 23.7867 -0.503067 -265.936 -87.8168 -92.1594
lowerback 8.68746 0.825247 -3.28234
upperback 2.62076 0.7772 1.32598
thorax -2.21511 0.357784 3.14019
lowerneck -12.8689 0.179466 -7.81962
upperneck 40.2244 -1.33892 5.00027
head 16.7826 -1.6927 3.23874
rclavicle -6.95746e-016 -8.64713e-015
rhumerus -31.8845 -5.19094 -82.5408
rradius 35.9216
rwrist -11.9004
rhand -21.0742 12.839
rfingers 7.12502
rthumb 5.30272 -17.0747
lclavicle -6.95746e-016 -8.64713e-015
lhumerus -29.8034 -1.95169 84.2889
lradius 43.9269
lwrist 9.17316
lhand -18.5284 21.5518
lfingers 7.12502
lthumb 7.76036 51.3894
rfemur -19.5353 -3.93763 23.368
rtibia 41.6489
rfoot -20.8099 5.57674
rtoes -1.35187
lfemur -14.7825 3.26255 -18.2336
ltibia 28.6503
lfoot -13.258 -15.3472
ltoes 9.2296
1640
root 0.41611 23.776 -0.513358 -268.229 -87.9704 -89.9175
lowerback 8.45283 0.747313 -3.46852
upperback 2.65167 0.668124 1.39343
thorax -2.04709 0.300089 3.32837
lowerneck -12.7952 0.173548 -8.01257
upperneck 40.2598 -1.27749 4.9285
head 16.7797 -1.71155 3.25131
rclavicle -4.34841e-015 -3.08116e-015
rhumerus -31.7403 -4.94904 -82.4914
rradius 35.2678
rwrist -11.9948
rhand -21.1056 12.6552
rfingers 7.12502
rthumb 5.27236 -17.2592
lclavicle -4.34841e-015 -3.08116e-015
lhumerus -29.7662 -1.21324 84.2531
lradius 43.4836
lwrist 9.1521
lhand -18.331 21.4825
lfingers 7.12502
lthumb 7.95087 51.313
rfemur -19.2683 -3.82945 23.3074
rtibia 40.6194
rfoot -20.4994 6.38752
rtoes 1.93418
lfemur -14.6511 3.21431 -18.3507
ltibia 28.8883
lfoot -13.7651 -15.4281
ltoes 8.88822
1641
root 0.363486 23.7677 -0.520332 -270.569 -88.3382 -87.5995
lowerback 8.19398 0.754182 -3.72459
upperback 2.66899 0.665471 1.31928
thorax -1.88714 0.296122 3.39757
lowerneck -12.6445 0.151157 -8.10156
upperneck 40.2165 -1.30245 4.93683
head 16.7214 -1.7344 3.26397
rclavicle -2.52208e-015 9.93923e-017
rhumerus -31.6573 -5.49777 -82.3255
rradius 34.5281
rwrist -11.4007
rhand -20.7528 12.7577
rfingers 7.12502
rthumb 5.61301 -17.148
lclavicle -2.52208e-015 9.93923e-017
lhumerus -29.8051 -1.19721 84.3191
lradius 43.14
lwrist 9.48227
lhand -18.8244 21.5255
lfingers 7.12502
lthumb 7.47465 51.3734
rfemur -19.0585 -3.75034 23.011
rtibia 39.8142
rfoot -20.2815 6.63127
rtoes 3.94543
lfemur -14.5049 3.01368 -18.7361
ltibia 29.0496
lfoot -14.0283 -15.3541
ltoes 7.83547
1642
root 0.312266 23.7561 -0.527719 -269.99 -88.5972 -88.2515
lowerback 7.99519 0.820367 -3.71884
upperback 2.71103 0.757667 1.12811
thorax -1.73914 0.339012 3.18792
lowerneck -12.5776 0.136432 -7.93443
upperneck 40.1967 -1.37139 4.9158
head 16.6984 -1.73918 3.21135
rclavicle -1.78906e-015 -9.14409e-015
rhumerus -31.6071 -6.47037 -82.2915
rradius 33.8558
rwrist -10.5316
rhand -20.5838 12.8518
rfingers 7.12502
rthumb 5.77624 -17.0495
lclavicle -1.78906e-015 -9.14409e-015
lhumerus -29.8513 -1.54453 84.2654
lradius 42.7976
lwrist 9.72758
lhand -18.9613 21.6843
lfingers 7.12502
lthumb 7.34246 51.5369
rfemur -18.8526 -3.49869 22.8964
rtibia 39.1785
rfoot -20.1308 6.44092
rtoes 6.00173
lfemur -14.3054 3.30718 -18.9771
ltibia 29.1888
lfoot -14.1746 -15.7862
ltoes 7.70348
1643
root 0.262686 23.7354 -0.53268 -268.144 -88.4554 -90.2913
lowerback 7.92638 0.897943 -3.32413
upperback 2.77249 0.891574 1.08623
thorax -1.64294 0.403166 2.90971
lowerneck -12.5262 0.0949697 -7.70503
upperneck 40.2395 -1.44628 4.74315
head 16.7134 -1.76047 3.07965
rclavicle -1.76421e-015 -1.98785e-016
rhumerus -31.6687 -6.808 -82.2578
rradius 33.4501
rwrist -10.364
rhand -20.5858 12.506
rfingers 7.12502
rthumb 5.77422 -17.3953
lclavicle -1.76421e-015 -1.98785e-016
lhumerus -29.7654 -1.71763 84.2209
lradius 42.2291
lwrist 9.53624
lhand -18.7499 21.8378
lfingers 7.12502
lthumb 7.54653 51.6832
rfemur -18.4623 -3.36338 23.2679
rtibia 38.686
rfoot -19.1377 6.53585
rtoes 12.1133
lfemur -13.954 3.4871 -18.7698
ltibia 29.3027
lfoot -14.5367 -16.0598
ltoes 7.83888
1644
root 0.213917 23.7168 -0.536344 -266.675 -88.3617 -91.9161
lowerback 7.86122 0.951599 -3.13727
upperback 2.78373 0.9817 1.21805
thorax -1.60149 0.44717 2.93315
lowerneck -12.4344 0.0965018 -7.77171
upperneck 40.3923 -1.40604 4.6162
head 16.771 -1.7817 3.04406
rclavicle 2.00027e-015 2.83268e-015
rhumerus -31.7753 -6.86153 -81.9662
rradius 33.1133
rwrist -10.2836
rhand -20.096 12.4579
rfingers 7.12502
rthumb 6.24709 -17.43
lclavicle 2.00027e-015 2.83268e-015
lhumerus -29.684 -1.45397 84.3603
lradius 41.5792
lwrist 9.24921
lhand -18.5975 21.795
lfingers 7.12502
lthumb 7.69367 51.635
rfemur -18.1093 -3.42032 23.5853
rtibia 38.3678
rfoot -17.862 6.23521
rtoes 17.9306
lfemur -13.634 3.176 -18.63
ltibia 29.365
lfoot -14.7238 -16.1298
ltoes 7.78505
1645
root 0.167722 23.7142 -0.535229 -265.649 -88.5493 -93.0745
lowerback 7.7993 0.882637 -3.29851
upperback 2.78698 0.882926 1.36382
thorax -1.56066 0.396262 3.18518
lowerneck -12.3988 0.193831 -8.10171
upperneck 40.583 -1.17539 4.57867
head 16.8484 -1.75692 3.12996
rclavicle -1.11288e-014 -1.41696e-014
rhumerus -31.6824 -6.79376 -81.6971
rradius 32.6017
rwrist -9.88705
rhand -19.7179 12.544
rfingers 7.12502
rthumb 6.61213 -17.3327
lclavicle -1.11288e-014 -1.41696e-014
lhumerus -29.7843 -0.851543 84.5099
lradius 41.0801
lwrist 9.18601
lhand -18.5784 21.7465
lfingers 7.12502
lthumb 7.71207 51.5859
rfemur -17.7651 -3.48635 23.518
rtibia 38.2202
rfoot -17.3048 4.8719
rtoes 18.9312
lfemur -13.2909 2.69246 -18.79
ltibia 29.3797
lfoot -14.567 -16.6112
ltoes 9.72993
